<svg width="1600" height="1080" viewBox="0 0 1600 1080" fill="none" xmlns="http://www.w3.org/2000/svg">
  <rect width="1600" height="1080" fill="#F7F8FA"/>
  <rect x="84" y="84" width="1432" height="912" rx="36" fill="white" stroke="#D7DFE8" stroke-width="4"/>
  <rect x="132" y="134" width="544" height="812" rx="28" fill="#F8FBFF"/>
  <rect x="132" y="134" width="544" height="184" rx="28" fill="#1E5A93"/>
  <circle cx="206" cy="206" r="36" fill="white" fill-opacity="0.16"/>
  <rect x="262" y="178" width="234" height="18" rx="9" fill="#DCEAF7"/>
  <rect x="262" y="214" width="178" height="12" rx="6" fill="#AAC4DE"/>
  <rect x="178" y="376" width="410" height="66" rx="20" fill="white"/>
  <rect x="178" y="474" width="364" height="16" rx="8" fill="#C6D3DE"/>
  <rect x="178" y="514" width="310" height="16" rx="8" fill="#D5DFE8"/>
  <rect x="178" y="602" width="184" height="50" rx="25" fill="#1E5A93"/>
  <rect x="386" y="602" width="170" height="50" rx="25" fill="#EAF2FA"/>
  <rect x="764" y="168" width="664" height="382" rx="30" fill="#F7FAFD" stroke="#DCE4EC" stroke-width="3"/>
  <rect x="816" y="236" width="152" height="38" rx="19" fill="#EAF2FA"/>
  <rect x="816" y="314" width="360" height="22" rx="11" fill="#203548"/>
  <rect x="816" y="360" width="504" height="16" rx="8" fill="#B2BFCC"/>
  <rect x="816" y="398" width="470" height="16" rx="8" fill="#CBD5DF"/>
  <rect x="816" y="458" width="178" height="52" rx="26" fill="#1E5A93"/>
  <rect x="1108" y="628" width="320" height="230" rx="28" fill="#F6EFE5"/>
  <rect x="170" y="728" width="394" height="168" rx="28" fill="#F6EFE5"/>
  <rect x="792" y="628" width="264" height="230" rx="28" fill="#EEF5EC"/>
  <text x="178" y="806" fill="#19212C" font-family="Noto Sans SC, sans-serif" font-size="64" font-weight="700">招生问答助手</text>
  <text x="178" y="858" fill="#5E6B78" font-family="Noto Sans SC, sans-serif" font-size="28">用于高校招生咨询、院系介绍与政策答疑的标准化项目展示。</text>
  <text x="816" y="202" fill="#1E5A93" font-family="DM Sans, sans-serif" font-size="22" font-weight="700" letter-spacing="4">EDUCATION SHOWCASE</text>
  <text x="1140" y="714" fill="#8B6D4A" font-family="DM Sans, sans-serif" font-size="22" font-weight="700">知识库接入</text>
  <text x="1140" y="756" fill="#5E6B78" font-family="Noto Sans SC, sans-serif" font-size="26">招生政策、专业介绍</text>
  <text x="1140" y="792" fill="#5E6B78" font-family="Noto Sans SC, sans-serif" font-size="26">问答记录与高频问题</text>
  <text x="834" y="694" fill="#4D7C57" font-family="DM Sans, sans-serif" font-size="22" font-weight="700">多轮问答</text>
  <text x="834" y="736" fill="#5E6B78" font-family="Noto Sans SC, sans-serif" font-size="26">适配官网、咨询台与社群渠道</text>
</svg>
