<svg width="1600" height="1080" viewBox="0 0 1600 1080" fill="none" xmlns="http://www.w3.org/2000/svg">
  <rect width="1600" height="1080" fill="#F6F8F9"/>
  <rect x="84" y="84" width="1432" height="912" rx="36" fill="white" stroke="#D8E1E6" stroke-width="4"/>
  <rect x="130" y="132" width="620" height="816" rx="30" fill="#F8FBFC"/>
  <rect x="130" y="132" width="620" height="202" rx="30" fill="#145D61"/>
  <rect x="184" y="182" width="164" height="18" rx="9" fill="#D8F0F0"/>
  <rect x="184" y="220" width="220" height="16" rx="8" fill="#AAC8C8"/>
  <rect x="184" y="388" width="456" height="78" rx="22" fill="white"/>
  <rect x="184" y="504" width="378" height="16" rx="8" fill="#B5C3CC"/>
  <rect x="184" y="542" width="344" height="16" rx="8" fill="#CFD8DE"/>
  <rect x="184" y="614" width="194" height="52" rx="26" fill="#145D61"/>
  <rect x="406" y="614" width="166" height="52" rx="26" fill="#EEF6F6"/>
  <rect x="812" y="148" width="638" height="304" rx="28" fill="#F8FAFB" stroke="#DDE5E9" stroke-width="3"/>
  <rect x="858" y="214" width="174" height="36" rx="18" fill="#EDF6F6"/>
  <rect x="858" y="286" width="382" height="20" rx="10" fill="#1E2A33"/>
  <rect x="858" y="326" width="522" height="15" rx="7.5" fill="#BAC7CF"/>
  <rect x="858" y="362" width="494" height="15" rx="7.5" fill="#D0D9DE"/>
  <rect x="858" y="510" width="592" height="394" rx="30" fill="#F9F6F1"/>
  <rect x="910" y="572" width="220" height="16" rx="8" fill="#A0784C"/>
  <rect x="910" y="624" width="472" height="116" rx="24" fill="white"/>
  <rect x="910" y="776" width="228" height="52" rx="26" fill="#145D61"/>
  <text x="184" y="792" fill="#18212B" font-family="Noto Sans SC, sans-serif" font-size="64" font-weight="700">企业售前顾问</text>
  <text x="184" y="846" fill="#5E6B78" font-family="Noto Sans SC, sans-serif" font-size="28">用于产品资料问答、行业方案匹配与咨询转化的智能体项目。</text>
  <text x="858" y="192" fill="#145D61" font-family="DM Sans, sans-serif" font-size="22" font-weight="700" letter-spacing="4">ENTERPRISE SERVICES</text>
  <text x="910" y="684" fill="#1E2A33" font-family="Noto Sans SC, sans-serif" font-size="30" font-weight="700">支持销售话术、产品清单与方案资料联动</text>
  <text x="910" y="726" fill="#5E6B78" font-family="Noto Sans SC, sans-serif" font-size="26">适合企业官网、售前顾问与客户成功团队使用</text>
</svg>
