<svg xmlns="http://www.w3.org/2000/svg" width="1200" height="900" viewBox="0 0 1200 900" fill="none">
  <defs>
    <linearGradient id="bg" x1="180" y1="110" x2="1010" y2="790" gradientUnits="userSpaceOnUse">
      <stop stop-color="#FFF4E6"/>
      <stop offset="0.52" stop-color="#EAF3FC"/>
      <stop offset="1" stop-color="#FFF8F0"/>
    </linearGradient>
  </defs>
  <rect width="1200" height="900" fill="url(#bg)"/>
  <circle cx="196" cy="180" r="146" fill="#FFB05E" fill-opacity="0.2"/>
  <circle cx="990" cy="718" r="180" fill="#5CA7E0" fill-opacity="0.12"/>
  <rect x="90" y="110" width="1020" height="680" rx="40" fill="white" fill-opacity="0.86" stroke="#D9E4EF" stroke-width="3"/>
  <rect x="140" y="160" width="420" height="580" rx="32" fill="#F0F6FC"/>
  <rect x="180" y="205" width="180" height="18" rx="9" fill="#0B3D6D"/>
  <rect x="180" y="240" width="290" height="14" rx="7" fill="#8AA2BA"/>
  <rect x="180" y="286" width="330" height="180" rx="26" fill="url(#bg)" stroke="#D8E3EF"/>
  <rect x="180" y="495" width="150" height="92" rx="24" fill="#FFF4E8"/>
  <rect x="348" y="495" width="162" height="92" rx="24" fill="#EAF3FC"/>
  <rect x="180" y="608" width="330" height="86" rx="24" fill="#0B3D6D"/>
  <text x="620" y="266" fill="#0A1424" font-size="66" font-family="Microsoft YaHei, Noto Sans SC, sans-serif" font-weight="700">招生问答助手</text>
  <text x="620" y="328" fill="#476079" font-size="26" font-family="Microsoft YaHei, Noto Sans SC, sans-serif">学校宣传图占位素材 · 后续可替换为正式视觉</text>
  <text x="620" y="430" fill="#0A1424" font-size="36" font-family="Microsoft YaHei, Noto Sans SC, sans-serif" font-weight="700">让家长、学生和招生老师都能更快进入对话</text>
  <text x="620" y="492" fill="#5E7287" font-size="22" font-family="Microsoft YaHei, Noto Sans SC, sans-serif">适合首页宣传位、活动页横幅、详情页辅助图与案例页使用。</text>
  <rect x="620" y="554" width="430" height="146" rx="32" fill="#0F5C9C"/>
  <text x="658" y="614" fill="white" font-size="24" font-family="Microsoft YaHei, Noto Sans SC, sans-serif">亮点能力</text>
  <text x="658" y="660" fill="white" fill-opacity="0.85" font-size="20" font-family="Microsoft YaHei, Noto Sans SC, sans-serif">专业推荐 · 入学咨询 · 留资转化 · 到访预约</text>
</svg>
