<svg xmlns="http://www.w3.org/2000/svg" width="1200" height="900" viewBox="0 0 1200 900" fill="none">
  <defs>
    <linearGradient id="bg" x1="90" y1="80" x2="1110" y2="820" gradientUnits="userSpaceOnUse">
      <stop stop-color="#08111f"/>
      <stop offset=".58" stop-color="#0f7490"/>
      <stop offset="1" stop-color="#ff8a3d"/>
    </linearGradient>
    <filter id="shadow" x="-20%" y="-20%" width="140%" height="140%">
      <feDropShadow dx="0" dy="28" stdDeviation="26" flood-color="#06101d" flood-opacity=".28"/>
    </filter>
  </defs>
  <rect width="1200" height="900" fill="url(#bg)"/>
  <circle cx="980" cy="170" r="150" fill="#fff" opacity=".1"/>
  <circle cx="205" cy="735" r="210" fill="#fff" opacity=".08"/>
  <rect x="110" y="120" width="980" height="660" rx="48" fill="#fff" opacity=".13" stroke="#fff" stroke-opacity=".22"/>
  <g filter="url(#shadow)">
    <rect x="180" y="210" width="330" height="430" rx="32" fill="#f8fafc"/>
    <rect x="222" y="258" width="190" height="22" rx="11" fill="#0f7490"/>
    <rect x="222" y="310" width="220" height="18" rx="9" fill="#cbd5e1"/>
    <rect x="222" y="360" width="230" height="96" rx="24" fill="#e0f2fe"/>
    <path d="M250 520h210" stroke="#0f7490" stroke-width="20" stroke-linecap="round"/>
    <path d="M250 570h132" stroke="#ff8a3d" stroke-width="20" stroke-linecap="round"/>
  </g>
  <path d="M610 610 745 475l106 82 170-220" stroke="#fff" stroke-width="34" stroke-linecap="round" stroke-linejoin="round"/>
  <circle cx="610" cy="610" r="26" fill="#fff"/>
  <circle cx="745" cy="475" r="26" fill="#fff"/>
  <circle cx="851" cy="557" r="26" fill="#fff"/>
  <circle cx="1021" cy="337" r="26" fill="#fff"/>
  <text x="600" y="285" fill="#fff" font-family="Arial, sans-serif" font-size="62" font-weight="800">Sales Growth</text>
  <text x="604" y="348" fill="#fff" opacity=".82" font-family="Arial, sans-serif" font-size="28">Lead routing · Pipeline · Revenue ops</text>
</svg>
